<svg width="76" height="76" viewBox="0 0 76 76" fill="none" xmlns="http://www.w3.org/2000/svg">
<path d="M45.1435 68.8567L38.0002 76L30.8567 68.8567C16.8133 65.6146 6.3335 53.0237 6.3335 38C6.3335 20.52 20.5202 6.33337 38.0002 6.33337C55.4802 6.33337 69.6668 20.52 69.6668 38C69.6668 53.0237 59.1871 65.6146 45.1435 68.8567ZM19.074 48.8183C23.7211 55.7552 30.7013 60.1667 38.5059 60.1667C46.3104 60.1667 53.2907 55.7552 57.9378 48.8183C52.8471 44.0712 46.0156 41.1667 38.5059 41.1667C30.9962 41.1667 24.1648 44.0712 19.074 48.8183ZM38.0002 34.8334C43.247 34.8334 47.5002 30.5801 47.5002 25.3334C47.5002 20.0867 43.247 15.8334 38.0002 15.8334C32.7533 15.8334 28.5002 20.0867 28.5002 25.3334C28.5002 30.5801 32.7533 34.8334 38.0002 34.8334Z" fill="#284B63"/>
</svg>
