<svg width="16" height="16" viewBox="0 0 16 16" fill="none" xmlns="http://www.w3.org/2000/svg">
<path d="M6.00016 0.666687V2.00002H10.0002V0.666687H11.3335V2.00002H14.0002C14.3684 2.00002 14.6668 2.2985 14.6668 2.66669V13.3334C14.6668 13.7016 14.3684 14 14.0002 14H2.00016C1.63198 14 1.3335 13.7016 1.3335 13.3334V2.66669C1.3335 2.2985 1.63198 2.00002 2.00016 2.00002H4.66683V0.666687H6.00016ZM13.3335 7.33335H2.66683V12.6667H13.3335V7.33335ZM7.3335 8.66669V11.3334H4.00016V8.66669H7.3335ZM4.66683 3.33335H2.66683V6.00002H13.3335V3.33335H11.3335V4.66669H10.0002V3.33335H6.00016V4.66669H4.66683V3.33335Z" fill="#284B63"/>
</svg>
