<svg width="32" height="32" viewBox="0 0 32 32" fill="none" xmlns="http://www.w3.org/2000/svg">
<path d="M8.00667 12H26.5912L27.2579 9.33329H10.6733V6.66663H28.9656C29.702 6.66663 30.299 7.26359 30.299 7.99996C30.299 8.10897 30.2856 8.21759 30.2591 8.32335L26.9258 21.6566C26.7775 22.2502 26.2442 22.6666 25.6323 22.6666H6.67334C5.93697 22.6666 5.34001 22.0697 5.34001 21.3333V5.33329H2.67334V2.66663H6.67334C7.40973 2.66663 8.00667 3.26359 8.00667 3.99996V12ZM8.00667 30.6666C6.53391 30.6666 5.34001 29.4728 5.34001 28C5.34001 26.5272 6.53391 25.3333 8.00667 25.3333C9.47943 25.3333 10.6733 26.5272 10.6733 28C10.6733 29.4728 9.47943 30.6666 8.00667 30.6666ZM24.0067 30.6666C22.5339 30.6666 21.34 29.4728 21.34 28C21.34 26.5272 22.5339 25.3333 24.0067 25.3333C25.4795 25.3333 26.6734 26.5272 26.6734 28C26.6734 29.4728 25.4795 30.6666 24.0067 30.6666Z" fill="#284B63"/>
</svg>
