<svg width="16" height="16" viewBox="0 0 16 16" fill="none" xmlns="http://www.w3.org/2000/svg">
<path d="M8.00016 1.33331C11.6802 1.33331 14.6668 4.31998 14.6668 7.99998C14.6668 11.68 11.6802 14.6666 8.00016 14.6666C4.32016 14.6666 1.3335 11.68 1.3335 7.99998C1.3335 4.31998 4.32016 1.33331 8.00016 1.33331ZM8.00016 13.3333C10.9468 13.3333 13.3335 10.9466 13.3335 7.99998C13.3335 5.05331 10.9468 2.66665 8.00016 2.66665C5.0535 2.66665 2.66683 5.05331 2.66683 7.99998C2.66683 10.9466 5.0535 13.3333 8.00016 13.3333ZM10.3572 4.70015L11.3 5.64296L8.00016 8.94278L7.05736 7.99998L10.3572 4.70015Z" fill="#284B63"/>
</svg>
