<svg width="16" height="16" viewBox="0 0 16 16" fill="none" xmlns="http://www.w3.org/2000/svg">
<path d="M7 12.1433C3.05369 11.7684 0 9.2035 0 6.09524C0 2.72893 3.58172 0 8 0C12.4183 0 16 2.72893 16 6.09524C16 9.2035 12.9463 11.7684 9 12.1433V13.7231C12.9463 13.7934 16 14.2744 16 14.8571C16 15.4883 12.4183 16 8 16C3.58172 16 0 15.4883 0 14.8571C0 14.2744 3.05369 13.7934 7 13.7231V12.1433ZM8 10.6667C11.3137 10.6667 14 8.61996 14 6.09524C14 3.57051 11.3137 1.52381 8 1.52381C4.68629 1.52381 2 3.57051 2 6.09524C2 8.61996 4.68629 10.6667 8 10.6667ZM8 7.61905C6.8954 7.61905 6 6.93684 6 6.09524C6 5.25366 6.8954 4.57143 8 4.57143C9.1046 4.57143 10 5.25366 10 6.09524C10 6.93684 9.1046 7.61905 8 7.61905Z" fill="#284B63"/>
</svg>
